# xmcd
#
# Track frame offsets: 
#        150
#        13945
#        28310
#        43505
#        56212
#        71305
#        92152
#        109247
#        121062
#        138357
#        154567
#        169132
#        187460
#        199252
#        213202
#        231817
#        244362
#        260497
#        273792
#        291855
#
# Disc length: 4052 seconds
#
# Revision: 7
# Processed by: cddbd v1.5.2PL0 Copyright (c) Steve Scherf et al.
# Submitted via: ExactAudioCopyFreeDBPlugin 1.0
#
DISCID=2e0fd214
DTITLE=The Highwayman  (Willie Nelson, Johnny Cash, Waylon Jennings and 
DTITLE=Kris Kristofferson) - T H E   H I G H W A Y M A N   C O L L E C
DTITLE=T I O N     2  0 0 0
DYEAR=2000
DGENRE=Country Pop
TTITLE0=Highwayman  1985
TTITLE1=The Last Cowboy Song  1985
TTITLE2=Jim, I Wore A Tie Today  1985
TTITLE3=Big River  1985
TTITLE4=Committed To Parkview  1985
TTITLE5=Desperados Waiting For A Train  1985
TTITLE6=Deportee  (Plane Wreck At Los Gatos)  1985
TTITLE7=Welfare Line  1985
TTITLE8=Against The Wind  1985
TTITLE9=The Twentieth Century Is Almost Over  1985
TTITLE10=Silver Stallion  1990
TTITLE11=Born And Raised In Black And White  1990
TTITLE12=Two Stories Wide  1990
TTITLE13=We're All In Your Corner  1990
TTITLE14=American Remains  1990
TTITLE15=Anthem '84  1990
TTITLE16=Angels Love Bad Men  1990
TTITLE17=Songs That Make A Difference  1990
TTITLE18=Living Legend  1990
TTITLE19=Texas  1990
EXTD=
EXTT0=
EXTT1=
EXTT2=
EXTT3=
EXTT4=
EXTT5=
EXTT6=
EXTT7=
EXTT8=
EXTT9=
EXTT10=
EXTT11=
EXTT12=
EXTT13=
EXTT14=
EXTT15=
EXTT16=
EXTT17=
EXTT18=
EXTT19=
PLAYORDER=
